<svg width="47" height="22" viewBox="0 0 47 22" fill="none" xmlns="http://www.w3.org/2000/svg">
<mask id="path-1-inside-1_1_175" fill="white">
<path fill-rule="evenodd" clip-rule="evenodd" d="M11.0002 0.499757C11.1679 0.499757 11.3346 0.503684 11.5002 0.511453V0.499757H36.0002H36.5002V0.511453C42.0671 0.77243 46.5002 5.36838 46.5002 10.9998C46.5002 16.6311 42.0671 21.2271 36.5002 21.4881V21.4998H36.0002H11.5002V21.4881C11.3346 21.4958 11.1679 21.4998 11.0002 21.4998C5.20125 21.4998 0.500244 16.7987 0.500244 10.9998C0.500244 5.20077 5.20125 0.499757 11.0002 0.499757Z"/>
</mask>
<path d="M11.5002 0.511453L11.4534 1.51036L12.5002 1.55944V0.511453H11.5002ZM11.5002 0.499757V-0.500243H10.5002V0.499757H11.5002ZM36.5002 0.499757H37.5002V-0.500243H36.5002V0.499757ZM36.5002 0.511453H35.5002V1.46567L36.4534 1.51036L36.5002 0.511453ZM36.5002 21.4881L36.4534 20.4892L35.5002 20.5338V21.4881H36.5002ZM36.5002 21.4998V22.4998H37.5002V21.4998H36.5002ZM11.5002 21.4998H10.5002V22.4998H11.5002V21.4998ZM11.5002 21.4881H12.5002V20.4401L11.4534 20.4892L11.5002 21.4881ZM11.5471 -0.48745C11.3658 -0.495949 11.1835 -0.500243 11.0002 -0.500243V1.49976C11.1522 1.49976 11.3033 1.50332 11.4534 1.51036L11.5471 -0.48745ZM10.5002 0.499757V0.511453H12.5002V0.499757H10.5002ZM36.0002 -0.500243H11.5002V1.49976H36.0002V-0.500243ZM36.5002 -0.500243H36.0002V1.49976H36.5002V-0.500243ZM37.5002 0.511453V0.499757H35.5002V0.511453H37.5002ZM36.4534 1.51036C41.4893 1.74644 45.5002 5.90498 45.5002 10.9998H47.5002C47.5002 4.83178 42.6449 -0.201581 36.5471 -0.48745L36.4534 1.51036ZM45.5002 10.9998C45.5002 16.0945 41.4893 20.2531 36.4534 20.4892L36.5471 22.487C42.6449 22.2011 47.5002 17.1677 47.5002 10.9998H45.5002ZM37.5002 21.4998V21.4881H35.5002V21.4998H37.5002ZM36.0002 22.4998H36.5002V20.4998H36.0002V22.4998ZM11.5002 22.4998H36.0002V20.4998H11.5002V22.4998ZM10.5002 21.4881V21.4998H12.5002V21.4881H10.5002ZM11.0002 22.4998C11.1835 22.4998 11.3658 22.4955 11.5471 22.487L11.4534 20.4892C11.3033 20.4962 11.1522 20.4998 11.0002 20.4998V22.4998ZM-0.499756 10.9998C-0.499756 17.351 4.64897 22.4998 11.0002 22.4998V20.4998C5.75354 20.4998 1.50024 16.2465 1.50024 10.9998H-0.499756ZM11.0002 -0.500243C4.64897 -0.500243 -0.499756 4.64848 -0.499756 10.9998H1.50024C1.50024 5.75305 5.75354 1.49976 11.0002 1.49976V-0.500243Z" fill="white" fill-opacity="0.5" mask="url(#path-1-inside-1_1_175)"/>
<path d="M37.8538 10.8533C38.0491 10.658 38.0491 10.3415 37.8538 10.1462L34.6718 6.96422C34.4766 6.76896 34.16 6.76896 33.9647 6.96422C33.7694 7.15948 33.7694 7.47607 33.9647 7.67133L36.7931 10.4998L33.9647 13.3282C33.7694 13.5234 33.7694 13.84 33.9647 14.0353C34.16 14.2306 34.4766 14.2306 34.6718 14.0353L37.8538 10.8533ZM10.5002 10.9998L37.5002 10.9998V9.99976L10.5002 9.99976V10.9998Z" fill="#FCFCFC"/>
</svg>
